<?xml version="1.0" encoding="UTF-8" standalone="no"?>
<!-- Created with Inkscape (http://www.inkscape.org/) -->

<svg
   xmlns:dc="http://purl.org/dc/elements/1.1/"
   xmlns:cc="http://creativecommons.org/ns#"
   xmlns:rdf="http://www.w3.org/1999/02/22-rdf-syntax-ns#"
   xmlns:svg="http://www.w3.org/2000/svg"
   xmlns="http://www.w3.org/2000/svg"
   xmlns:sodipodi="http://sodipodi.sourceforge.net/DTD/sodipodi-0.dtd"
   xmlns:inkscape="http://www.inkscape.org/namespaces/inkscape"
   width="124.403"
   height="123.237"
   viewBox="0 0 32.91496 32.606457"
   version="1.1"
   id="svg1536"
   inkscape:version="0.92.3 (2405546, 2018-03-11)"
   sodipodi:docname="logo.svg">
  <defs
     id="defs1530" />
  <sodipodi:namedview
     id="base"
     pagecolor="#ffffff"
     bordercolor="#666666"
     borderopacity="1.0"
     inkscape:pageopacity="0.0"
     inkscape:pageshadow="2"
     inkscape:zoom="5.6"
     inkscape:cx="91.348137"
     inkscape:cy="66.637471"
     inkscape:document-units="mm"
     inkscape:current-layer="layer1"
     showgrid="false"
     units="px"
     inkscape:window-width="1920"
     inkscape:window-height="1058"
     inkscape:window-x="1280"
     inkscape:window-y="0"
     inkscape:window-maximized="1" />
  <metadata
     id="metadata1533">
    <rdf:RDF>
      <cc:Work
         rdf:about="">
        <dc:format>image/svg+xml</dc:format>
        <dc:type
           rdf:resource="http://purl.org/dc/dcmitype/StillImage" />
        <dc:title></dc:title>
      </cc:Work>
    </rdf:RDF>
  </metadata>
  <g
     inkscape:label="Layer 1"
     inkscape:groupmode="layer"
     id="layer1"
     transform="translate(0,-264.39352)">
    <g
       id="g5600"
       transform="matrix(0.16144608,0,0,0.16144608,-4.1100053,239.1172)">
      <g
         transform="matrix(0.89726578,0,0,0.89726578,5.6260408,100.86437)"
         id="g5461">
        <path
           id="path14347"
           d="m 77.144837,156.29735 -6.93768,-27.02467 4.840244,3.63018 -6.130973,-28.31541 7.09902,7.58305 9.438468,-17.747558 v 6.857018 l 30.896874,-20.97438 -0.40337,9.680482 24.68524,-15.408101 11.29389,-12.503955 3.22682,15.811452 -2.42011,10.890542 12.90732,-9.277128 -2.82348,7.260361 24.68522,-3.226827 -9.27713,6.453656 24.28188,6.453655 -16.21481,3.226823 12.50396,14.19804 -15.40811,-1.61342 7.66371,9.27713 -9.19645,-1.12939 2.82348,20.24835 -6.615,15.81145 c 0,0 -38.31857,7.26036 -50.01582,4.03353 -11.69724,-3.22683 -50.903193,-4.19488 -50.903193,-4.19488 z"
           style="fill:#000000"
           inkscape:connector-curvature="0" />
        <path
           id="path14349"
           d="m 136.45782,158.95948 c -3.54951,0 -6.29232,-0.242 -8.06707,-0.72602 -10.56786,-2.90415 -41.948755,-3.95287 -49.773809,-4.19489 l -4.840243,-19.03827 4.51756,3.38817 -5.646948,-26.21797 3.710853,3.95286 6.614992,-12.50396 v 2.09745 l 30.574185,-20.893712 -0.40335,9.438465 28.63808,-17.828216 8.5511,-9.438469 2.25878,10.89054 -3.63018,16.295476 11.53591,-8.309078 -1.45208,3.710851 19.19962,-2.500791 -5.64695,3.952864 19.52231,5.243598 -10.48719,2.097436 11.2939,12.745966 -15.08542,-1.61341 7.58305,9.11578 -6.53433,-0.88738 3.14615,22.58779 -5.88895,14.11737 c -5.24359,0.88738 -26.29864,4.51755 -39.68997,4.51755 z"
           style="fill:#333333"
           inkscape:connector-curvature="0" />
        <polygon
           id="polygon14351"
           points="-13.2,349.3 32.6,339.2 39.6,363.7 32.6,386.7 -21.3,391.6 -71.5,385.6 -72.8,346 -16.8,354.5 -3.2,353.5 "
           style="fill:#ffccaa;stroke:#002e2a;stroke-width:2;stroke-miterlimit:10;stroke-opacity:1"
           transform="matrix(0.80670675,0,0,0.80670675,141.86275,-151.62261)" />
        <polygon
           id="polygon14447"
           points="-15.7,327 -45.6,315.7 -21.9,310.8 -12.6,298.1 -16.9,318.1 -7.3,319.6 -19.9,322.2 "
           style="fill:#666666;fill-opacity:1"
           transform="matrix(0.80670675,0,0,0.80670675,141.86275,-151.62261)" />
        <polygon
           id="polygon14449"
           points="-4.8,295.7 3.9,290.9 -10,310.9 "
           style="fill:#666666;fill-opacity:1"
           transform="matrix(0.80670675,0,0,0.80670675,141.86275,-151.62261)" />
        <polygon
           id="polygon14457"
           points="44.1,334.3 43.9,332.2 43.4,357.2 41.1,377.3 47.8,361.2 "
           style="fill:#666666;fill-opacity:1"
           transform="matrix(0.80670675,0,0,0.80670675,141.86275,-151.62261)" />
        <polygon
           id="polygon14459"
           points="58.9,323.3 54.6,322.7 48.9,311.7 "
           style="fill:#666666;fill-opacity:1"
           transform="matrix(0.80670675,0,0,0.80670675,141.86275,-151.62261)" />
        <polygon
           id="polygon14461"
           points="25.4,338.2 -26.9,346 -72.4,343.7 -18.4,351.8 -14.9,351.5 -19.6,348.2 "
           style="fill:#666666;fill-opacity:1"
           transform="matrix(0.80670675,0,0,0.80670675,141.86275,-151.62261)" />
        <polygon
           id="polygon14463"
           points="-74.1,377.3 -77.6,377 -75.6,346.2 "
           style="fill:#666666;fill-opacity:1"
           transform="matrix(0.80670675,0,0,0.80670675,141.86275,-151.62261)" />
        <polygon
           id="polygon14465"
           points="7.8,304.1 8.2,285.2 10,274.4 11.8,284.2 "
           style="fill:#666666"
           transform="matrix(0.80670675,0,0,0.80670675,141.86275,-151.62261)" />
      </g>
      <g
         id="g4776">
        <rect
           style="fill:#cccccc;fill-opacity:1;stroke:none;stroke-opacity:1"
           id="rect14600"
           width="203.87619"
           height="117.44728"
           x="25.457449"
           y="241.07968"
           ry="9.3957806" />
        <g
           transform="matrix(0.12793859,0,0,0.12793859,-88.982179,231.45988)"
           id="g4283">
          <g
             id="g4277">
            <path
               sodipodi:nodetypes="cssscsccscssscsscsc"
               style="fill:#e4cc3e"
               d="m 1712.2439,752.34157 c -0.3817,-0.6177 13.118,-23.69358 29.9994,-51.27976 78.9457,-129.00611 100.6219,-164.77377 100.6219,-166.03522 0,-0.74896 -29.7736,-50.0823 -66.1634,-109.62962 -36.3899,-59.54733 -65.89,-108.71025 -65.5559,-109.25094 0.3342,-0.54069 29.0171,-0.98307 63.7399,-0.98307 h 63.1323 l 2.261,3.22265 c 2.0069,2.86028 35.2763,57.02674 100.1207,163.00764 11.5742,18.9169 22.0379,36.58292 23.2524,39.25781 3.0794,6.78168 3.027,20.63749 -0.104,27.53742 -1.2718,2.80272 -8.0351,14.40428 -15.0295,25.78125 -6.9944,11.37697 -17.8864,29.1229 -24.2045,39.4354 -6.3181,10.3125 -12.9194,20.85937 -14.6694,23.4375 -1.7502,2.57812 -16.7382,26.83593 -33.3069,53.90624 -16.5687,27.07031 -32.0734,52.11914 -34.4549,55.66406 l -4.3301,6.44531 -62.3075,0.3032 c -38.8134,0.18888 -62.5691,-0.12027 -63.0015,-0.81987 z"
               id="path4266"
               inkscape:connector-curvature="0" />
            <path
               style="fill:#149d5b"
               d="m 1903.4624,630.25629 c -6.4484,-10.10993 -55.3922,-90.38943 -57.0702,-93.60884 -1.3184,-2.52955 -75.4427,-124.0132 -118.1976,-193.71618 -7.8296,-12.76461 -14.2357,-23.6977 -14.2357,-24.29577 0,-1.53892 121.7756,-2.07314 123.7147,-0.54272 1.3933,1.09966 114.4428,184.97598 122.4669,199.19387 2.6757,4.74119 3.8659,8.58743 4.2832,13.84207 1.0147,12.77773 2.2572,10.29475 -37.6542,75.24529 -9.5054,15.46875 -17.7333,28.58883 -18.2843,29.15572 -0.5653,0.58165 -2.7537,-1.71592 -5.0228,-5.27344 z"
               id="path4256"
               inkscape:connector-curvature="0" />
            <path
               sodipodi:nodetypes="ssscsssssssscsssccsssscs"
               style="fill:#4788f0"
               d="m 1542.5875,749.63572 c -0.9455,-1.4502 -16.3986,-26.63086 -34.3401,-55.95703 -17.9416,-29.32617 -45.1966,-73.86984 -60.5666,-98.98592 -31.0927,-50.80841 -32.5331,-53.93573 -30.4596,-66.1314 1.0315,-6.06645 2.9377,-10.21065 9.9723,-21.67968 4.7833,-7.79876 16.9425,-27.62681 27.0202,-44.06236 10.0778,-16.43555 18.9245,-29.88281 19.6593,-29.88281 0.7348,0 14.5811,21.63149 30.7696,48.06997 16.1884,26.43848 31.8709,51.75098 34.85,56.25 4.5789,6.91512 37.5643,60.6685 116.2754,189.48397 8.1574,13.34999 14.8316,24.55604 14.8316,24.90234 0,0.3463 -28.416,0.62964 -63.1465,0.62964 h -63.1465 z m -9.147,-224.94675 c -2.1075,-3.41307 -13.3218,-21.76222 -24.9207,-40.77589 -11.5989,-19.01367 -23.6899,-38.72241 -26.869,-43.79717 -3.5289,-5.63334 -5.5567,-10.08116 -5.2065,-11.42039 0.6203,-2.37179 64.4776,-106.92461 67.3735,-110.30978 1.6298,-1.90512 6.1529,-2.05078 63.6821,-2.05078 34.0603,0 61.9278,0.34918 61.9278,0.77595 0,1.21627 -2.894,6.00764 -62.1723,102.93498 -68.4952,111.99814 -67.203,109.92198 -68.7339,110.43228 -0.6871,0.22901 -2.9735,-2.37614 -5.081,-5.7892 z"
               id="path4262"
               inkscape:connector-curvature="0" />
            <path
               sodipodi:nodetypes="ssccsssscs"
               style="fill:#d85044"
               d="m 1533.4405,524.68897 c -2.1075,-3.41307 -13.3218,-21.76222 -24.9207,-40.77589 -11.5989,-19.01367 -23.6899,-38.72241 -26.869,-43.79717 -3.5289,-5.63334 -5.5567,-10.08116 -5.2065,-11.42039 0.6203,-2.37179 64.4776,-106.92461 67.3735,-110.30978 1.6298,-1.90512 6.1529,-2.05078 63.6821,-2.05078 34.0603,0 61.9278,0.34918 61.9278,0.77595 0,1.21627 -2.894,6.00764 -62.1723,102.93498 -68.4952,111.99814 -67.203,109.92198 -68.7339,110.43228 -0.6871,0.22901 -2.9735,-2.37614 -5.081,-5.7892 z"
               id="path4260"
               inkscape:connector-curvature="0" />
          </g>
        </g>
      </g>
    </g>
  </g>
</svg>
